<svg width="136" height="136" viewBox="0 0 136 136" fill="none" xmlns="http://www.w3.org/2000/svg">
<rect width="136" height="136" rx="68" fill="#F4F4F4"/>
<path d="M92.5 49.25H80V43C80 41.3424 79.3415 39.7527 78.1694 38.5806C76.9973 37.4085 75.4076 36.75 73.75 36.75H61.25C57.7812 36.75 55 39.5312 55 43V49.25H42.5C39.0312 49.25 36.25 52.0312 36.25 55.5V89.875C36.25 91.5326 36.9085 93.1223 38.0806 94.2944C39.2527 95.4665 40.8424 96.125 42.5 96.125H92.5C94.1576 96.125 95.7473 95.4665 96.9194 94.2944C98.0915 93.1223 98.75 91.5326 98.75 89.875V55.5C98.75 53.8424 98.0915 52.2527 96.9194 51.0806C95.7473 49.9085 94.1576 49.25 92.5 49.25ZM61.25 43H73.75V49.25H61.25V43ZM67.5 58.625C69.572 58.625 71.5591 59.4481 73.0243 60.9132C74.4894 62.3784 75.3125 64.3655 75.3125 66.4375C75.3125 68.5095 74.4894 70.4966 73.0243 71.9618C71.5591 73.4269 69.572 74.25 67.5 74.25C65.428 74.25 63.4409 73.4269 61.9757 71.9618C60.5106 70.4966 59.6875 68.5095 59.6875 66.4375C59.6875 64.3655 60.5106 62.3784 61.9757 60.9132C63.4409 59.4481 65.428 58.625 67.5 58.625ZM83.125 89.875H51.875V85.9688C51.875 81.6562 58.875 78.1562 67.5 78.1562C76.125 78.1562 83.125 81.6562 83.125 85.9688V89.875Z" fill="#CEAE65"/>
</svg>
