<svg width="136" height="136" viewBox="0 0 136 136" fill="none" xmlns="http://www.w3.org/2000/svg">
<rect width="136" height="136" rx="68" fill="#F4F4F4"/>
<path d="M81.5 63.0313C80.2813 64.25 78.2501 64.25 77.0313 63.0313L63.0626 49.0938L41.0313 71.0938L38.9688 69.125C37.2132 67.3672 36.2271 64.9844 36.2271 62.5C36.2271 60.0156 37.2132 57.6328 38.9688 55.875L52.2188 42.625C53.9766 40.8694 56.3594 39.8833 58.8438 39.8833C61.3282 39.8833 63.711 40.8694 65.4688 42.625L81.5 58.625C82.7188 59.8438 82.7188 61.8125 81.5 63.0313ZM83.6876 56.4063C86.1251 58.8438 86.1251 62.8125 83.6876 65.25C79.7188 69.2188 75.5313 65.9375 74.8438 65.25L63.0938 53.5L45.6876 70.9063C45.3979 71.1954 45.168 71.5388 45.0112 71.9168C44.8544 72.2949 44.7737 72.7001 44.7737 73.1094C44.7737 73.5187 44.8544 73.9239 45.0112 74.302C45.168 74.68 45.3979 75.0234 45.6876 75.3125C46.9063 76.5313 48.8751 76.5313 50.1251 75.3125L64.5626 60.875L66.7813 63.0938L52.3438 77.5313C52.0541 77.8204 51.8243 78.1638 51.6674 78.5418C51.5106 78.9199 51.4299 79.3251 51.4299 79.7344C51.4299 80.1437 51.5106 80.5489 51.6674 80.927C51.8243 81.305 52.0541 81.6484 52.3438 81.9375C53.5626 83.1563 55.5313 83.1563 56.7813 81.9375L71.2188 67.5L73.4375 69.7188L59 84.1563C58.7107 84.4456 58.4812 84.7891 58.3247 85.1671C58.1681 85.5451 58.0875 85.9502 58.0875 86.3594C58.0875 86.7685 58.1681 87.1737 58.3247 87.5517C58.4812 87.9297 58.7107 88.2732 59 88.5625C59.2894 88.8518 59.6328 89.0813 60.0109 89.2379C60.3889 89.3945 60.794 89.4751 61.2032 89.4751C61.6123 89.4751 62.0175 89.3945 62.3955 89.2379C62.7735 89.0813 63.117 88.8518 63.4063 88.5625L77.8438 74.125L80.0626 76.3438L65.6251 90.7813C65.3357 91.0706 65.1062 91.414 64.9497 91.7921C64.7931 92.1701 64.7125 92.5752 64.7125 92.9844C64.7125 93.3935 64.7931 93.7987 64.9497 94.1767C65.1062 94.5547 65.3357 94.8982 65.6251 95.1875C66.2094 95.7718 67.0018 96.1001 67.8282 96.1001C68.2373 96.1001 68.6425 96.0195 69.0205 95.8629C69.3985 95.7063 69.742 95.4768 70.0313 95.1875L96.0313 69.125C97.7869 67.3672 98.7731 64.9844 98.7731 62.5C98.7731 60.0156 97.7869 57.6328 96.0313 55.875L82.7813 42.625C81.0562 40.9006 78.727 39.9165 76.2881 39.8815C73.8492 39.8465 71.4927 40.7634 69.7188 42.4375L83.6876 56.4063Z" fill="#CEAE65"/>
</svg>
