<svg width="136" height="136" viewBox="0 0 136 136" fill="none" xmlns="http://www.w3.org/2000/svg">
<rect width="136" height="136" rx="68" fill="#F4F4F4"/>
<g clip-path="url(#clip0_291_3168)">
<path d="M67.5 47.6875C70.4008 47.6875 73.1828 48.8398 75.234 50.891C77.2852 52.9422 78.4375 55.7242 78.4375 58.625C78.4375 61.5258 77.2852 64.3078 75.234 66.359C73.1828 68.4102 70.4008 69.5625 67.5 69.5625C64.5992 69.5625 61.8172 68.4102 59.766 66.359C57.7148 64.3078 56.5625 61.5258 56.5625 58.625C56.5625 55.7242 57.7148 52.9422 59.766 50.891C61.8172 48.8398 64.5992 47.6875 67.5 47.6875ZM45.625 55.5C47.375 55.5 49 55.9688 50.4062 56.8125C49.9375 61.2812 51.25 65.7188 53.9375 69.1875C52.375 72.1875 49.25 74.25 45.625 74.25C43.1386 74.25 40.754 73.2623 38.9959 71.5041C37.2377 69.746 36.25 67.3614 36.25 64.875C36.25 62.3886 37.2377 60.004 38.9959 58.2459C40.754 56.4877 43.1386 55.5 45.625 55.5ZM89.375 55.5C91.8614 55.5 94.246 56.4877 96.0041 58.2459C97.7623 60.004 98.75 62.3886 98.75 64.875C98.75 67.3614 97.7623 69.746 96.0041 71.5041C94.246 73.2623 91.8614 74.25 89.375 74.25C85.75 74.25 82.625 72.1875 81.0625 69.1875C83.7859 65.6695 85.0505 61.238 84.5937 56.8125C86 55.9688 87.625 55.5 89.375 55.5ZM47.1875 87.5312C47.1875 81.0625 56.2812 75.8125 67.5 75.8125C78.7188 75.8125 87.8125 81.0625 87.8125 87.5312V93H47.1875V87.5312ZM30 93V88.3125C30 83.9688 35.9062 80.3125 43.9062 79.25C42.0625 81.375 40.9375 84.3125 40.9375 87.5312V93H30ZM105 93H94.0625V87.5312C94.0625 84.3125 92.9375 81.375 91.0937 79.25C99.0938 80.3125 105 83.9688 105 88.3125V93Z" fill="#CEAE65"/>
</g>
<defs>
<clipPath id="clip0_291_3168">
<rect width="75" height="75" fill="white" transform="translate(30 30.5)"/>
</clipPath>
</defs>
</svg>
