<svg width="342" height="342" viewBox="0 0 342 342" fill="none" xmlns="http://www.w3.org/2000/svg">
<path d="M153.901 132.302C154.465 128.882 147.283 117.032 141.025 117.032C134.766 117.032 126.336 124.641 126.336 128.711C126.336 132.781 134.338 142.613 139.468 143.178C144.393 143.178 153.388 135.944 153.901 132.302ZM150.635 131.806C149.899 134.2 142.256 140.151 139.349 139.877C135.929 138.663 129.653 131.037 129.636 128.711C129.773 126.779 136.22 120.332 141.025 120.332C145.06 120.383 150.96 130.13 150.703 131.806H150.635Z" fill="#CEAE65"/>
<path d="M170.027 281.14C165.701 281.14 161.255 281.961 160.16 283.466C157.185 288.596 157.989 303.986 168.608 301.814C173.584 301.814 179.107 300.292 180.184 298.172C182.784 290.699 181.467 279.413 170.027 281.14ZM177.312 296.53C166.658 301.027 159.186 298.992 162.759 285.535C172.712 282.953 180.663 283.209 177.312 296.547V296.53Z" fill="#CEAE65"/>
<path d="M305.201 282.149C292.445 277.207 278.166 284.389 285.742 299.454C289.059 303.797 304.244 302.105 306.689 299.454C309.134 296.804 308.878 284.303 305.201 282.149ZM304.278 297.18C294.018 300.788 281.552 299.762 289.316 285.671C289.418 284.543 302.004 283.363 303.44 284.936C304.877 286.509 305.646 294.923 304.278 297.094V297.18Z" fill="#CEAE65"/>
<path d="M160.741 164.57C166.931 163.715 174.866 155.883 174.421 151.865C173.976 147.846 165.871 137.535 160.946 137.21C156.09 137.21 146.018 145.589 145.898 149.436C145.779 152.925 154.294 165.305 160.741 164.57ZM149.13 149.539C149.848 146.991 157.68 140.493 160.895 140.51C163.392 141.006 170.625 148.958 171.052 152.258C164.264 165.22 154.91 163.065 149.13 149.539Z" fill="#CEAE65"/>
<path d="M300.038 214.177C286.7 212.467 286.118 225.497 289.145 233.893C291.539 237.45 303.782 237.655 307.75 234.851C312.384 231.568 311.426 218.743 309.323 216.263C308.143 214.895 304.142 214.177 300.038 214.177ZM291.915 232.081C290.701 229.875 290.821 221.137 292.462 218.794C293.266 217.358 305.39 217.084 306.826 218.469C307.598 220.757 307.918 223.173 307.767 225.583C308.947 235.757 296.566 234.167 291.915 232.081Z" fill="#CEAE65"/>
<path d="M289.572 246.907C285.93 253.627 286.648 270.847 299.832 268.761C313.512 270.471 312.657 255.85 309.084 247.437C306.501 243.812 291.984 243.897 289.572 246.907ZM306.912 264.007C293.232 268.932 288.529 262.913 292.086 249.13C293.574 247.642 305.51 247.916 306.348 249.455C308.092 251.969 308.229 261.476 306.912 263.921V264.007Z" fill="#CEAE65"/>
<path d="M103.592 226.848C95.2988 227.634 74.5223 232.576 86.4923 240.87C88.9205 242.135 103.746 238.39 106.858 234.474C108.962 231.858 107.987 226.3 103.592 226.848Z" fill="#CEAE65"/>
<path d="M288.803 188.287C286.7 191.314 286.033 200.086 288.7 203.335C290.975 206.139 305.8 207.695 309.494 204.754C311.751 202.446 313.854 190.595 308.895 187.5C304.74 184.935 291.453 184.901 288.803 188.287ZM307.202 190.356C310.024 192.75 308.057 201.283 307.202 202.326C304.791 203.882 291.197 202.326 291.214 201.163C289.692 199.453 290.068 192.408 291.436 190.253C292.804 188.731 304.979 188.372 307.202 190.356Z" fill="#CEAE65"/>
<path d="M37.9116 187.228C40.1175 180.884 35.6373 162.057 40.374 158.158C53.8659 161.578 72.1458 157.85 81.2088 144.153C95.9832 149.813 99.7794 164.673 99.7794 164.673C112.057 151.421 87.2109 141.52 81.927 140.801C74.6766 115.425 28.5408 127.412 28.575 153.729C20.025 161.048 13.7493 174.762 20.6064 184.321C26.181 190.477 37.2276 190.99 37.9116 187.228Z" fill="#CEAE65"/>
<path d="M97.4708 201.181C93.6233 202.446 94.1705 205.695 82.8161 207.798C59.7653 209.252 61.2701 221.718 81.2942 221.256C113.938 217.357 101.301 199.915 97.4708 201.181Z" fill="#CEAE65"/>
<path d="M34.0811 210.329C28.3355 212.039 26.9675 219.956 30.5756 220.452C50.6681 223.239 52.703 219.905 54.1565 217.647C56.9267 213.304 41.3828 208.259 34.0811 210.329Z" fill="#CEAE65"/>
<path d="M202.413 249.967C190.323 247.983 189.503 262.963 195.009 268.281C197.745 270.538 208.569 271.427 212.314 269.222C216.059 267.016 216.161 255.268 213.75 252.549C212.553 251.198 207.338 249.967 202.413 249.967ZM210.587 266.4C208.877 267.905 197.471 266.828 197.095 265.733C189.554 252.207 202.071 251.506 211.322 254.806C212.553 256.944 212.04 265.049 210.587 266.4Z" fill="#CEAE65"/>
<path d="M265.342 279.139C251.987 276.762 251.268 294.358 256.792 299.984C260.024 302.293 271.874 302.361 275.243 299.984C278.611 297.607 279.056 284.201 276.388 281.533C275.089 280.234 270.181 279.139 265.342 279.139ZM273.293 297.248C272.182 298.736 259.613 298.65 258.707 297.248C257.288 296 255.697 287.484 258.211 283.996C259.408 281.585 272.626 282.405 274.011 283.773C275.311 286.167 274.884 295.726 273.293 297.248Z" fill="#CEAE65"/>
<path d="M206.226 143.639C202.157 143.639 192.273 152.65 193.025 157.216C193.778 161.782 201.165 171.221 205.645 171.46C223.566 166.484 222.3 149.59 206.226 143.639ZM215.82 158.362C215.033 162.825 208.039 168.143 205.56 168.16C203.251 167.75 196.804 160.26 196.206 156.703C196.206 154.378 203.32 147.281 206.073 146.939C207.851 147.059 216.452 154.48 215.82 158.396V158.362Z" fill="#CEAE65"/>
<path d="M256.997 185.022C255.423 188.134 255.406 193.572 255.287 196.411C255.167 202.156 257.8 204.311 267.257 204.533C274.592 204.687 277.841 204.123 279.227 199.54C280.475 195.693 280.748 188.1 278.594 184.543C276.063 181.807 259.921 181.705 256.997 185.022ZM277.123 196.257C276.918 203.371 261.511 201.387 258.843 199.677C257.544 197.591 257.681 189.417 259.459 187.211C260.331 185.655 274.849 185.381 276.422 186.886C277.512 189.886 277.755 193.128 277.123 196.257Z" fill="#CEAE65"/>
<path d="M225.875 284.852C220.556 293.675 223.378 304.004 234.544 302.499C238.477 302.499 242.564 301.883 244.462 300.789C248.156 298.532 248.464 286.305 245.967 283.484C243.744 280.902 229.551 280.44 225.875 284.852ZM242.735 297.899C241.863 299.25 229.055 299.609 228.063 298.241C226.353 296.788 226.353 288.682 228.422 286.938C229.26 284.8 241.418 284.168 243.556 285.707C244.907 287.998 244.343 296.548 242.821 297.899H242.735Z" fill="#CEAE65"/>
<path d="M245.301 218.571C241.505 216.006 229.501 217.528 226.713 219.375C223.635 221.376 223.43 231.345 226.303 235.945C229.176 240.545 244.514 239.04 247.165 236.766C249.815 234.492 248.482 220.982 245.301 218.571ZM244.891 234.303C243.181 235.603 230.202 236.167 229.073 234.149C226.918 230.729 227.363 223.428 228.577 222.094C228.765 221.205 241.436 219.7 243.249 221.153C245.062 222.607 245.968 231.892 244.891 234.269V234.303Z" fill="#CEAE65"/>
<path d="M287.366 68.2278C303.543 67.1847 305.373 53.6073 305.373 53.6073C305.373 53.6073 304.535 54.0861 300.602 53.043C296.669 51.9999 285.81 35.943 264.812 35.943C253.389 35.943 246.395 45.3138 250.362 51.7776C254.329 58.2414 274.49 69.0657 287.366 68.2278Z" fill="#CEAE65"/>
<path d="M241.248 268.128C244.668 265.751 244.497 254.192 241.949 251.61C239.589 249.284 224.695 247.095 221.565 251.61C214.144 269.65 227.636 273.6 241.248 268.128ZM224.609 266.076C223.087 264.691 221.959 256.722 224.25 253.525C225.687 251.199 238.648 252.772 239.64 253.986C240.991 255.97 240.786 264.075 239.367 265.426C239.401 266.589 225.516 267.41 224.609 266.076Z" fill="#CEAE65"/>
<path d="M169.29 219.923C156.209 218.538 156.089 230.679 160.039 239.075C162.57 242.324 177.139 242.255 179.499 239.553C183.432 232.85 181.637 217.939 169.29 219.923ZM177.054 237.279C175.703 238.63 163.288 238.339 162.604 236.988C161.014 234.783 160.894 226.728 162.057 224.608C173.907 220.743 180.833 224.01 177.002 237.279H177.054Z" fill="#CEAE65"/>
<path d="M178.456 268.966C181.979 260.86 182.594 247.334 169.513 248.908C157.013 246.924 156.038 262.981 159.646 269.428C161.972 272.283 175.994 272.386 178.456 268.966ZM163.066 253.576C164.964 251.592 175.276 252.122 176.336 253.576C177.516 255.799 177.396 264.571 175.806 266.948C175.105 268.333 163.477 268.658 162.126 267.256C160.843 264.776 160.741 255.166 163.066 253.576Z" fill="#CEAE65"/>
<path d="M256.739 235.774C259.937 237.689 271.839 238.459 275.088 235.894C279.858 230.764 279.619 214.45 267.615 216.451C262.776 216.451 257.594 217.768 256.397 219.187C254.072 221.974 253.08 233.688 256.739 235.774ZM258.86 221.41C270.402 217.34 278.781 219.7 272.984 233.38C271.958 234.697 259.424 234.201 258.466 232.987C257.509 231.773 257.338 223.633 258.86 221.41Z" fill="#CEAE65"/>
<path d="M200.857 136.098C195.898 120.332 182.697 114.501 173.822 132.234C171.924 138.185 182.697 149.009 186.203 149.522C190.649 149.881 200.892 140.63 200.857 136.098ZM186.664 146.239C175.857 139.399 172.454 129.139 187.708 124.163C190.922 125.171 197.489 133.636 197.557 136.133C197.626 138.629 189.486 145.965 186.664 146.239Z" fill="#CEAE65"/>
<path d="M267.291 250.292C262.965 250.292 258.501 251.455 257.219 252.755C254.568 255.422 253.696 268.418 257.219 270.898C260.742 273.377 272.421 272.71 275.465 270.504C280.441 265.716 279.107 248.274 267.291 250.292ZM273.601 267.837C273.344 268.965 260.536 269.82 259.254 268.23C257.766 267.204 258.313 256.106 259.63 255.097C272.13 250.48 277.91 255.969 273.601 267.837Z" fill="#CEAE65"/>
<path d="M200.327 281.671C187.69 279.961 184.937 293.026 189.503 300.396C192.307 303.063 207.646 302.961 210.125 299.951C214.674 291.196 213.477 280.269 200.327 281.671ZM207.68 297.728C206.979 299.113 193.213 299.438 191.828 298.019C190.956 296.89 189.998 288.272 192.82 286.323C195.06 284.373 207.013 284.869 208.21 286.323C209.407 288.255 209.253 295.83 207.68 297.728Z" fill="#CEAE65"/>
<path d="M259.288 98.0169C262.178 99.3165 268.454 90.8178 263.375 89.6208C261.015 90.9888 251.183 89.0394 251.405 92.5791C252.075 94.1348 253.17 95.4701 254.565 96.4319C255.959 97.3937 257.596 97.943 259.288 98.0169ZM255.663 93.1777C256.997 92.8186 264.452 90.5956 261.426 94.6996C260.314 95.6401 255.475 95.965 255.663 93.1777Z" fill="#06455B"/>
<path d="M236.118 71.3406C238.734 70.6395 240.974 69.4083 244.343 70.2291C244.722 70.209 245.084 70.0632 245.371 69.8147C245.658 69.5662 245.855 69.2292 245.929 68.8568C246.003 68.4844 245.952 68.0978 245.782 67.758C245.613 67.4182 245.335 67.1445 244.993 66.9801C241.727 66.2165 238.295 66.679 235.348 68.2797C234.271 69.1005 234.168 71.8194 236.118 71.3406Z" fill="#06455B"/>
<path d="M328.064 153.728C326.012 144.836 325.14 140.63 318.454 140.801C317.958 118.331 313.136 101.659 300.892 89.6376C302.343 88.0738 303.455 86.2272 304.158 84.2136C304.862 82.1999 305.143 80.0627 304.982 77.9356C304.822 75.8086 304.224 73.7376 303.226 71.8525C302.227 69.9673 300.851 68.3085 299.182 66.9801C302.186 64.8048 304.621 61.9362 306.278 58.6182C307.082 56.6346 307.681 54.2577 306.142 52.7358C304.876 51.4875 303.508 51.8979 302.465 51.7611C300.618 51.5388 298.908 50.8377 294.89 43.9635C287.332 30.6768 264.11 26.3676 247.181 35.1057C232.817 42.5271 226.028 54.6681 226.439 72.2469C226.763 80.5917 225.823 92.7669 233.125 99.8976C225.912 103.672 218.112 106.198 210.057 107.37C205.884 104.498 199.489 101.488 198.566 109.337C198.189 112.466 193.983 113.236 192.29 114.672C179.773 102.924 171.428 127.48 162.177 128.745C157.32 125.479 147.556 105.37 142.478 106.874C136.39 106.874 118.144 120.777 117.204 127.394C116.776 130.49 126.044 142.306 133.141 150.839C130.813 151.613 128.616 152.737 126.626 154.173C123.633 152.959 120.248 152.36 118.88 153.181C115.46 155.216 117.358 160.945 116.691 163.151C116.109 165.032 113.698 167.716 104.105 175.121C104.082 173.401 103.928 171.686 103.643 169.991C121.855 152.189 101.181 136.799 83.6877 132.695C71.4783 100.428 21.9055 128.848 21.6319 151.505C1.52225 166.895 4.53185 197.18 31.0026 197.128C31.1448 198.059 31.5149 198.94 32.08 199.693C19.7167 208.448 15.1339 227.207 15.9889 237.689C16.6729 246.034 25.3426 252.464 35.6196 256.91C34.0977 267.392 26.1976 304.79 33.8071 309.475C59.5597 310.997 98.6674 309.39 123.257 309.475C131.807 307.167 126.455 298.292 120.145 295.693C118.845 276.028 112.877 242.683 114.228 224.454C136.304 206.909 149.813 194.255 152.19 172.094C157.115 176.899 158.244 176.916 158.808 176.916C162.758 178.216 177.618 160.876 182.526 159.081C187.793 160.62 198.104 182.833 203.713 182.422C212.143 181.772 229.038 165.887 229.363 159.457C229.363 157.029 223.48 148.872 216.042 139.929C220.043 139.262 222.659 138.219 226.952 137.483C230.457 142.374 235.108 142.955 241.333 143.639C228.969 154.447 230.799 177.138 248.446 179.772C247.044 185.962 246.257 203.421 247.591 209.269C206.072 206.379 218.111 210.979 215.751 241.981C210.929 243.88 192.392 240.819 188.015 242.734C188.528 222.539 188.135 212.689 184.595 211.184C179.465 209.03 156.517 208.671 152.618 211.184C150.754 212.416 150.002 217.46 150.446 260.774C150.634 278.9 150.771 302.02 152.738 306.226C162.091 316.11 260.382 308.381 286.34 310.997C317.684 309.031 317.855 318.709 315.119 275.788C318.112 269.239 317.051 198.633 316.538 180.456C321.121 183.739 332.39 189.125 333.467 180.815C333.45 177.053 330.03 162.449 328.064 153.728ZM315.222 129.959C309.296 130.991 303.278 131.398 297.267 131.174C300.293 130.49 301.764 125.89 297.677 127.052C294.257 129.412 287.212 132.353 278.73 134.901C280.098 127.343 278.063 115.852 271.736 109.559C273.446 108.482 277.106 107.747 275.892 105.25C275.64 104.897 275.263 104.652 274.837 104.566C274.412 104.481 273.97 104.56 273.6 104.788C267.188 109.029 253.918 111.902 244.291 112.757C241.623 112.637 239.896 108.516 236.442 109.029C236.24 106.815 236.449 104.583 237.058 102.446C254.996 110.671 288.922 103.66 298.173 91.6554C308.091 99.9831 314.025 115.801 315.222 129.959ZM248.874 37.9614C290.974 22.0755 290.307 55.3179 303.594 55.2666C295.044 77.4966 269.035 67.7496 249.746 57.5238C239.4 52.0347 240.7 45.0921 248.874 37.9614ZM240.324 43.7925C238.614 47.7084 237.793 51.6072 239.862 55.0272C235.89 56.5962 232.547 59.4337 230.354 63.0984C231.264 55.6973 234.766 48.8576 240.238 43.7925H240.324ZM229.859 74.5725C235.741 46.9047 248.942 62.3289 264.862 68.0232C263.392 68.6217 259.647 69.7332 261.032 72.093C261.299 72.4345 261.687 72.6616 262.115 72.7283C262.544 72.7949 262.982 72.6962 263.34 72.4521C268.47 70.0581 271.89 69.9726 274.746 70.8447C287.092 74.5212 298.241 65.7147 299.986 72.5547C302.807 80.5917 302.876 85.9611 294.941 89.6547C288.46 98.1021 273.498 102.446 254.021 102.531C232.15 102.599 229.397 90.4071 229.773 74.6067L229.859 74.5725ZM84.3547 136.133C98.9067 139.826 115.613 152.412 102.891 166.075C100.258 158.038 98.0346 150.839 83.1576 143.075C84.0195 140.903 84.3987 138.569 84.2691 136.235L84.3547 136.133ZM98.5135 163.185C114.451 203.045 50.6334 213.134 34.3885 196.684C46.9227 192.699 35.3118 168.007 41.5875 160.124C59.3373 164.69 75.5139 156.977 81.7383 146.068C89.3184 149.434 95.3 155.606 98.4279 163.287L98.5135 163.185ZM13.0135 182.969C8.49905 172.949 15.5956 161.594 24.9835 152.07C23.2735 137.791 59.3031 109.32 75.7191 126.232C93.0243 143.999 64.2963 164.279 41.5191 156.704C38.9416 155.83 36.6007 154.373 34.6792 152.446C27.6853 151.01 35.5 158.414 38.3214 158.944C33.1915 166.126 40.0315 185.534 35.3632 192.374C26.779 196.803 15.5443 190.528 12.9109 183.072L13.0135 182.969ZM19.3747 237.296V233.876C26.9329 228.986 42.4939 228.284 55.2847 232.628C60.2266 233.671 64.2279 237.758 68.6055 234.577C71.1192 232.081 73.7355 231.568 74.5222 232.149C75.685 232.919 73.5133 235.928 74.5222 237.279C77.9422 240.528 81.8923 240.973 81.4476 246.12C71.4784 243.196 71.1876 248.77 80.9688 249.403C80.4772 251.207 79.679 252.914 78.609 254.447C73.8552 253.148 70.0591 252.926 70.0591 253.832C69.9223 255.764 73.1712 256.602 75.9756 257.423C70.7259 265.135 52.617 260.655 39.1422 254.789C28.7626 250.651 20.5204 244.222 19.2721 237.399L19.3747 237.296ZM81.8067 306.295C68.7253 306.397 42.4767 307.355 34.8331 306.158C34.4606 305.263 34.2632 304.305 34.2517 303.336C39.6553 300.532 83.1405 290.033 81.7041 306.397L81.8067 306.295ZM85.4491 306.295C86.3382 303.182 84.7309 300.275 82.1488 298.138C89.9464 295.744 106.55 294.496 119.068 299.078C140.22 310.741 93.7425 305.252 85.3465 306.38L85.4491 306.295ZM116.81 294.906C105.056 291.907 92.7288 291.966 81.003 295.077C82.4736 291.469 88.356 260.381 81.2424 269.068C81.8067 276.489 79.7035 287.792 77.3607 295.829C63.031 292.102 44.6484 295.829 34.1319 299.848C34.4928 285.866 36.02 271.938 38.6976 258.209C56.4645 263.613 72.6412 270.607 82.183 254.618C90.7329 254.02 104.601 252.464 112.108 248.651C113.39 259.714 115.46 285.792 116.708 294.992L116.81 294.906ZM115.289 219.546C116.793 212.005 116.468 207.132 104.669 197.128C104.328 196.963 103.941 196.916 103.57 196.995C103.198 197.074 102.864 197.275 102.619 197.564C102.374 197.854 102.233 198.218 102.217 198.597C102.201 198.976 102.312 199.35 102.532 199.659C122.129 215.648 105.319 223.736 111.8 244.991C107.166 247.796 96.9402 250.019 83.7561 251.062C85.8936 244.871 83.6535 237.997 77.4463 236.048C79.9428 226.609 71.2731 227.224 66.126 232.337C62.193 232.645 60.483 230.627 56.1738 229.601C57.8143 226.316 59.9999 223.332 62.6376 220.778C63.8859 212.074 53.5575 225.788 52.9932 228.609C40.7496 225.446 27.7708 226.044 19.6141 230.046C20.7769 220.282 25.4281 208.021 34.645 201.865C52.9762 211.937 94.4949 208.705 102.617 185.141C106.533 195.829 118.486 205.541 126.934 209.68C123.191 213.196 119.27 216.518 115.186 219.632L115.289 219.546ZM146.205 183.636C143.435 191.28 137.963 198.701 129.482 207.234C119.427 202.823 105.285 190.015 104.687 179.019C109.97 173.428 119.666 169.991 120.077 162.398C119.871 159.235 119.888 156.55 120.572 156.122C121.256 155.695 123.753 156.67 124.557 157.029C129.14 159.115 134.817 152.429 135.723 153.814C136.629 155.199 137.69 156.14 138.493 157.046C130.61 163.116 134.15 167.408 140.665 159.56C142.375 161.475 143.88 163.185 145.265 164.689C137.638 172.299 140.939 177.224 147.437 167.289C150.566 172.59 148.001 178.968 146.103 183.705L146.205 183.636ZM226.216 159.389C226.216 161.765 219.376 169.648 211.579 175.257C206.688 178.677 204.157 179.259 203.456 179.019C198.822 175.463 186.92 154.19 182.645 155.729C178.405 155.045 163.955 172.573 159.047 173.53C149.147 166.314 122.453 133.465 120.59 127.771C121.41 123.119 137.399 110.175 142.478 110.175C147.317 110.807 157.03 132.063 161.664 132.011C169.154 133.721 179.379 114.176 186.39 114.313C190.375 114.74 224.181 152.189 226.114 159.457L226.216 159.389ZM225.327 134.405C221.487 135.433 217.594 136.25 213.665 136.851C207.743 129.852 201.465 123.162 194.855 116.81C198.771 113.612 199.848 115.476 201.695 108.054C202.105 106.464 204.209 106.635 206.209 108.516C208.826 110.876 210.689 110.636 214.195 110.004C220.419 108.875 228.405 105.318 233.518 103.437C233.125 105.761 233.085 108.13 233.398 110.465C232.502 111.754 231.997 113.274 231.945 114.843C229.621 114.865 227.398 115.798 225.754 117.442C224.111 119.086 223.178 121.308 223.155 123.632C222.935 127.362 223.646 131.088 225.224 134.474L225.327 134.405ZM232.56 138.219C231.109 137.288 229.929 135.99 229.14 134.457C230.953 134.457 234.629 135.654 234.732 132.901C234.689 132.477 234.491 132.085 234.175 131.801C233.858 131.516 233.447 131.359 233.022 131.362C231.162 131.428 229.302 131.226 227.499 130.763C226.975 129.238 226.647 127.652 226.524 126.044C228.679 126.471 233.108 128.164 233.655 125.154C233.655 124.701 233.475 124.266 233.154 123.945C232.833 123.624 232.398 123.444 231.945 123.444C230.187 123.526 228.434 123.211 226.815 122.521C227.294 116.656 235.502 120.178 235.365 114.723C235.621 112.911 235.844 112.449 236.613 112.278C239.264 112.158 241.127 116.604 244.753 115.972C252.864 115.256 260.854 113.532 268.539 110.842C275.379 116.365 277.277 129.104 275.259 135.825C261.271 139.245 245.078 143.297 232.56 138.219ZM241.11 172.709C230.525 162.022 239.828 140.75 255.868 143.075C244.359 153.66 243.59 170.264 257.885 176.831C251.883 177.275 244.975 176.796 241.11 172.709ZM187.981 246.239C189.52 244.871 198.241 245.333 202.909 245.59C206.725 245.928 210.562 245.963 214.383 245.692C218.761 245.128 219.017 243.521 219.308 240.785C220.146 233.141 218.367 216.503 219.872 213.51C223.634 210.432 244.787 212.142 252.465 212.57C258.262 212.877 275.943 211.407 280.611 213.476C281.689 215.562 281.757 228.045 280.834 242.546C242.991 241.708 248.72 235.107 247.66 273.668C234.629 274.489 195.094 276.011 188.288 272.984C187.023 270.932 187.775 252.43 187.964 246.239H187.981ZM207.971 307.457C184.526 307.714 157.936 308.005 155.816 304.995C153.045 292.102 152.857 227.652 154.687 213.818C158.107 212.364 178.627 212.21 183.244 214.109C186.51 216.947 184.15 256.448 183.945 264.571C183.62 277.703 184.338 277.122 193.504 277.515C198.36 277.738 206.329 277.515 216.23 277.926C214.982 279.636 214.52 300.241 216.367 307.372L207.971 307.457ZM310.964 306.363C298.532 309.048 243.607 306.722 220.18 307.338C219.103 307.338 218.829 301.524 218.658 298.052C217.786 280.628 219.479 278.234 219.735 277.977C224.865 276.267 246.582 279.26 249.695 276.267C252.619 277.481 250.464 249.129 251.729 246.034C257.338 243.811 273.481 245.829 280.235 245.744C283.57 283.364 272.078 275.173 311.87 276.353C313.631 291.725 313.238 305.32 310.947 306.431L310.964 306.363ZM313.768 189.143C312.554 208.671 315.051 258.569 312.742 273.172C306.655 272.043 290.512 273.753 284.51 272.744C280.646 206.431 299.592 208.483 252.584 209.286C247.95 208.158 251.268 196.051 250.635 191.725C250.772 187.159 250.977 180.883 251.849 180.114C264.093 179.242 284.339 180.439 294.155 179.977C300.314 179.703 306.484 179.749 312.64 180.114C312.93 180.216 314.059 180.969 313.751 189.211L313.768 189.143ZM316.025 177.036C297.113 175.531 290.256 177.839 269.855 176.318C247.095 175.309 244.496 154.088 262.195 142.118C272.034 140.416 281.676 137.723 290.974 134.081C299.139 134.819 307.365 134.537 315.461 133.243C315.552 135.829 315.449 138.418 315.153 140.989C315.512 141.194 278.645 142.955 289.11 147.607C298.105 146.016 306.21 145.093 311.785 144.58C315.085 153.557 316.128 168.349 316.008 177.104L316.025 177.036ZM329.073 181.704C325.479 181.742 322 180.444 319.309 178.062C319.514 169.512 318.556 154.122 315.17 144.255C317.838 144.255 321.036 143.058 322.284 145.965C323.994 150.753 333.16 180.165 329.056 181.772L329.073 181.704Z" fill="#06455B"/>
<path d="M293.54 84.1998C296.96 87.4488 301.2 80.5575 296.823 78.5397C293.659 77.0862 290.804 81.6519 293.54 84.1998Z" fill="#06455B"/>
<path d="M267.137 86.0636C273.977 91.1936 290.684 84.2168 281.244 74.0936C273.601 70.7078 256.261 75.8891 267.137 86.0636ZM274.849 76.4192C276.544 76.3413 278.24 76.5612 279.859 77.069C281.022 77.4623 281.689 83.7893 277.842 83.738C276.26 80.9819 274.151 78.5646 271.634 76.6244C272.701 76.4895 273.774 76.421 274.849 76.4192Z" fill="#06455B"/>
<path d="M255.166 88.2357C255.543 88.2542 255.915 88.1481 256.224 87.9336C256.534 87.7192 256.764 87.4085 256.879 87.0499C256.994 86.6912 256.988 86.3046 256.86 85.95C256.733 85.5955 256.492 85.2929 256.175 85.0893C255.94 85.0514 255.727 84.927 255.578 84.7404C255.43 84.5538 255.356 84.3184 255.372 84.0804C255.543 82.473 256.945 80.079 258.792 82.2165C264.725 84.525 260.331 76.0434 255.85 78.3861C251.832 79.7712 250.293 86.6967 255.166 88.2357Z" fill="#06455B"/>
<path d="M83.8764 182.781C80.9694 182.217 81.7902 186.731 76.8483 184.936C74.2491 184.936 72.8469 188.886 69.4953 188.578C67.6485 189.228 66.0753 186.081 64.3653 187.518C62.3475 193.913 74.6253 192.254 76.9509 188.39C79.9776 189.672 87.4674 186.201 83.8764 182.781Z" fill="#06455B"/>
<path d="M240.957 87.8763C256.108 86.3544 251.217 69.0663 234.801 74.7093C227.431 78.6594 231.826 88.7826 240.957 87.8763ZM240.581 77.2401C243.591 77.2401 245.609 77.394 246.258 79.1211C246.908 80.8482 246.652 84.0801 243.984 84.2511C242.46 81.6089 240.439 79.2863 238.033 77.4111C238.877 77.2873 239.729 77.2301 240.581 77.2401Z" fill="#06455B"/>
<path d="M76.6254 160.74C79.6521 161.389 80.5413 155.61 84.7821 155.353C85.1228 155.191 85.4002 154.92 85.5709 154.583C85.7415 154.246 85.796 153.862 85.7257 153.492C85.6554 153.121 85.4644 152.783 85.1823 152.532C84.9003 152.281 84.5431 152.131 84.1665 152.104C79.9257 153.096 73.7355 157.747 76.6254 160.74Z" fill="#06455B"/>
<path d="M250.225 132.114C265.153 141.793 278.081 131.635 265.29 125.274C273.173 110.431 251.61 112.227 248.19 128.164C248.021 128.554 247.941 128.977 247.955 129.402C247.97 129.826 248.078 130.243 248.273 130.621C248.467 130.998 248.744 131.328 249.081 131.587C249.419 131.845 249.809 132.025 250.225 132.114ZM261.272 118.331C267.479 118.708 260.998 123.632 261.272 126.676C261.614 128.574 267.582 128.797 266.983 130.832C263.956 136.338 255.458 130.421 251.388 129.036C254.209 121.409 258.45 118.451 261.272 118.331Z" fill="#06455B"/>
<path d="M87.3642 209.662C86.9971 209.545 86.6013 209.556 86.241 209.692C85.8807 209.829 85.577 210.083 85.3791 210.413C85.1812 210.744 85.1007 211.131 85.1507 211.513C85.2006 211.895 85.378 212.249 85.6542 212.518C96.0168 218.605 95.4183 220.606 92.4942 230.216C92.289 231.926 89.9976 235.107 92.4942 236.064C95.0763 236.594 94.8882 232.644 95.6406 231.174C98.8725 220.692 99.3513 216.707 87.3642 209.662Z" fill="#06455B"/>
<path d="M80.0636 164.16C76.7975 174.42 92.0336 179.994 96.5993 171C102.311 160.056 83.6888 153.25 80.0636 164.16ZM83.1929 165.186C83.3746 164.644 83.6526 164.14 84.0137 163.698C87.0332 165.919 90.4358 167.565 94.0514 168.554C92.3414 175.189 81.0554 172.009 83.1929 165.134V165.186Z" fill="#06455B"/>
<path d="M67.0326 177.002C70.0251 176.66 67.5627 171.239 70.863 170.555C73.4622 168.725 75.3261 173.975 77.8227 172.607C80.3706 168.281 71.2392 165.869 69.5805 167.579C66.5196 168.332 62.8944 175.445 67.0326 177.002Z" fill="#06455B"/>
<path d="M76.7797 178.062C74.1121 177.532 65.6647 181.927 70.7776 184.03C72.7954 183.346 74.3686 181.037 76.8139 181.362C77.1752 181.26 77.4928 181.042 77.7177 180.741C77.9427 180.441 78.0625 180.075 78.0586 179.699C78.0547 179.324 77.9274 178.96 77.6962 178.664C77.4651 178.368 77.143 178.157 76.7797 178.062Z" fill="#06455B"/>
<path d="M47.5731 168.212C49.779 167.391 52.7031 165.578 55.9521 166.656C56.3233 166.668 56.6885 166.559 56.9923 166.345C57.2962 166.132 57.5221 165.825 57.6361 165.471C57.7501 165.118 57.7459 164.737 57.6241 164.386C57.5023 164.035 57.2695 163.733 56.961 163.526C53.0109 161.714 41.6907 165.356 47.5731 168.212Z" fill="#06455B"/>
<path d="M51.8481 168.862C40.032 170.948 43.4349 188.219 54.2421 187.33C67.5801 187.227 65.7162 165.579 51.8481 168.862ZM49.7106 173.325C52.7226 175.955 56.2528 177.924 60.0732 179.105C57.1149 190.374 41.7249 180.199 49.7106 173.325Z" fill="#06455B"/>
</svg>
